<svg width="563" height="144" viewBox="0 0 563 144" fill="none" xmlns="http://www.w3.org/2000/svg">
<path d="M173.623 66.884C173.286 66.884 172.963 67.0215 172.724 67.2601C172.488 67.5014 172.359 67.8269 172.367 68.1665C172.794 85.134 184.317 96.9966 206.068 96.9966C229.163 96.9966 238.85 83.2986 238.85 68.6127C238.85 55.6556 230.487 48.9904 215.491 42.9427C198.9 36.5244 193.59 34.7985 193.725 28.0099C193.725 21.8386 199.299 17.643 205.804 17.643C214.763 17.643 216.913 23.6571 217.815 27.8808C217.939 28.4589 218.451 28.8742 219.044 28.8742C222.321 28.8742 232.525 28.8742 236.194 28.8742C236.542 28.8742 236.877 28.7283 237.116 28.4729C237.355 28.2175 237.476 27.8723 237.447 27.5244C235.952 8.34827 219.181 2.21631 206.467 2.21631C190.54 2.21631 173.95 11.7188 173.95 29.2447C173.95 46.5236 191.071 52.201 198.504 54.6678C212.174 59.7277 219.21 61.7034 219.21 69.4771C219.21 75.8953 213.371 81.5727 205.804 81.5727C201.691 81.5727 193.216 79.3724 192.086 68.0178C192.024 67.3751 191.482 66.8868 190.838 66.8868C187.386 66.884 177.21 66.884 173.623 66.884Z" fill="#250E62"/>
<path d="M320.786 63.4233C321.43 63.4233 321.97 62.9322 322.031 62.2923C323.173 49.7253 319.811 38.4604 311.223 29.3733C304.491 22.1833 294.987 17.9766 284.162 17.9766C262.25 17.9766 246.146 36.5633 246.146 57.7263C246.146 78.4824 262.118 97.0691 284.426 97.0691C291.951 97.0691 299.08 94.8998 305.151 90.5583C310.785 86.6574 315.622 81.0053 319.032 73.6021C319.209 73.2148 319.175 72.7658 318.948 72.4093C318.717 72.0529 318.321 71.8368 317.896 71.8368C314.003 71.8368 305.292 71.8368 302.714 71.8368C302.267 71.8368 301.854 72.0754 301.629 72.4627C298.287 78.2102 292.713 81.8753 284.558 81.8753C274.798 82.01 264.656 75.5525 263.61 63.934C263.599 63.8049 263.644 63.6759 263.731 63.5776C263.821 63.4822 263.945 63.4261 264.077 63.4261C269.289 63.4233 313.157 63.4233 320.786 63.4233ZM264.355 49.8572C264.22 49.8572 264.094 49.801 264.004 49.7C263.914 49.599 263.875 49.4671 263.889 49.3352C264.825 42.0891 271.79 33.0357 284.294 33.0357C296.654 32.9038 303.867 42.322 304.825 49.3324C304.842 49.4643 304.8 49.599 304.713 49.7C304.623 49.801 304.496 49.8572 304.361 49.8572C299.929 49.8572 268.78 49.8572 264.355 49.8572Z" fill="#250E62"/>
<path d="M332.346 93.5123C332.346 93.8434 332.478 94.1605 332.712 94.3935C332.945 94.6292 333.265 94.7583 333.594 94.7583C336.785 94.7583 345.198 94.7583 348.386 94.7583C348.717 94.7583 349.035 94.6264 349.268 94.3935C349.504 94.1605 349.634 93.8434 349.634 93.5123C349.634 86.7292 349.634 54.6044 349.634 54.6044C349.634 41.7175 355.838 35.883 367.981 35.883C368.192 35.883 368.394 35.7988 368.541 35.6501C368.69 35.5013 368.774 35.2993 368.774 35.0916C368.774 32.2796 368.774 22.7435 368.774 19.2607C368.774 18.9184 368.633 18.5928 368.386 18.3571C368.139 18.1213 367.804 17.9979 367.461 18.0147C357.659 18.5283 352.107 23.3525 349.004 29.4479C348.97 29.5125 348.9 29.5462 348.83 29.5293C348.76 29.5125 348.709 29.4508 348.709 29.3778C348.709 27.7585 348.709 23.6191 348.709 21.5283C348.709 21.1972 348.577 20.88 348.344 20.6471C348.11 20.4114 347.79 20.2823 347.461 20.2823C344.414 20.2823 336.638 20.2823 333.591 20.2823C333.26 20.2823 332.942 20.4142 332.709 20.6471C332.473 20.88 332.343 21.1972 332.343 21.5283C332.346 30.4639 332.346 84.5795 332.346 93.5123Z" fill="#250E62"/>
<path d="M449.88 21.5338C449.88 20.8434 449.32 20.2849 448.629 20.2849C445.419 20.2849 436.915 20.2849 433.705 20.2849C433.014 20.2849 432.454 20.8434 432.454 21.5338C432.454 23.72 432.454 28.1569 432.454 29.7425C432.454 29.8126 432.407 29.8744 432.339 29.894C432.272 29.9109 432.199 29.8828 432.165 29.8211C427.948 22.7742 419.147 18.1128 408.96 18.1128C388.895 18.1128 371.998 33.5788 371.998 57.8625C371.998 80.7908 388.102 97.0678 408.96 97.0678C420.91 97.0678 428.482 90.7703 432.165 84.3016C432.199 84.2398 432.272 84.2089 432.339 84.2258C432.409 84.2426 432.457 84.3044 432.457 84.3773C432.457 85.9433 432.457 90.0126 432.457 90.0126C432.457 105.072 421.236 112.396 410.942 112.396C408.831 112.396 405.002 111.855 401.438 109.817C398.483 108.299 395.872 105.953 394.247 102.891C394.034 102.479 393.606 102.22 393.14 102.22C390.182 102.218 379.543 102.218 375.458 102.218C375.068 102.218 374.699 102.4 374.463 102.709C374.227 103.017 374.148 103.422 374.252 103.798C377.491 114.975 388.333 127.587 409.885 127.587C424.8 127.587 436.946 120.804 443.15 112.256C447.639 106.015 449.883 98.1483 449.883 85.9377C449.88 85.9461 449.88 30.5956 449.88 21.5338ZM389.289 57.3209C389.289 44.027 399.189 34.6649 410.936 34.6649C418.461 34.6649 423.872 37.6481 427.305 42.1271C430.869 46.4686 432.584 52.4378 432.584 58.1348C432.452 64.5109 430.208 70.0731 426.38 74.0077C422.551 78.077 417.404 80.3838 410.936 80.3838C398.396 80.3838 389.289 70.4801 389.289 57.4584V57.3209Z" fill="#250E62"/>
<path d="M534.025 63.4233C534.669 63.4233 535.209 62.9322 535.27 62.2923C536.412 49.7253 533.05 38.4604 524.462 29.3733C517.73 22.1833 508.226 17.9766 497.401 17.9766C475.489 17.9766 459.385 36.5633 459.385 57.7263C459.385 78.4824 475.357 97.0691 497.665 97.0691C505.19 97.0691 512.319 94.8998 518.39 90.5583C524.024 86.6574 528.861 81.0053 532.271 73.6021C532.448 73.2148 532.415 72.7658 532.184 72.4093C531.954 72.0529 531.557 71.8368 531.133 71.8368C527.237 71.8368 518.525 71.8368 515.95 71.8368C515.503 71.8368 515.09 72.0754 514.865 72.4627C511.52 78.2102 505.949 81.8753 497.794 81.8753C488.034 82.01 477.892 75.5525 476.846 63.934C476.835 63.8049 476.88 63.6759 476.967 63.5776C477.057 63.4822 477.181 63.4261 477.313 63.4261C482.528 63.4233 526.393 63.4233 534.025 63.4233ZM477.594 49.8572C477.459 49.8572 477.333 49.801 477.243 49.7C477.153 49.599 477.111 49.4671 477.128 49.3352C478.066 42.0891 485.029 33.0357 497.533 33.0357C509.893 32.9038 517.106 42.322 518.064 49.3324C518.081 49.4643 518.039 49.599 517.949 49.7C517.859 49.801 517.733 49.8572 517.598 49.8572C513.165 49.8572 482.019 49.8572 477.594 49.8572Z" fill="#250E62"/>
<path d="M545.712 93.5145C545.712 93.8456 545.844 94.1628 546.078 94.3957C546.311 94.6314 546.629 94.7605 546.96 94.7605C550.151 94.7605 558.564 94.7605 561.752 94.7605C562.083 94.7605 562.401 94.6286 562.634 94.3957C562.871 94.1628 563 93.8456 563 93.5145C563 83.4227 563 15.2751 563 5.18049C563 4.84933 562.868 4.53221 562.634 4.29647C562.401 4.06354 562.083 3.93164 561.752 3.93164C558.561 3.93164 550.148 3.93164 546.96 3.93164C546.629 3.93164 546.311 4.06354 546.078 4.29647C545.841 4.53221 545.712 4.84933 545.712 5.18049C545.712 15.2751 545.712 83.4227 545.712 93.5145Z" fill="#250E62"/>
<path d="M183.285 141.338C183.35 141.529 183.529 141.661 183.732 141.661C184.651 141.661 187.181 141.661 188.114 141.661C188.322 141.661 188.508 141.523 188.567 141.324C189.27 138.955 193.461 124.822 194.2 122.327C194.214 122.277 194.262 122.243 194.312 122.243C194.366 122.243 194.411 122.277 194.425 122.327C195.184 124.82 199.49 138.969 200.207 141.327C200.266 141.526 200.449 141.661 200.657 141.661C201.587 141.661 204.123 141.661 205.042 141.661C205.244 141.661 205.424 141.532 205.489 141.338C206.422 138.509 213.194 117.975 214.459 114.138C214.507 113.995 214.481 113.838 214.394 113.715C214.304 113.591 214.164 113.521 214.012 113.521C212.834 113.521 210.383 113.521 209.475 113.521C209.267 113.521 209.084 113.656 209.025 113.855C208.272 116.33 203.566 131.821 202.779 134.415C202.765 134.462 202.717 134.499 202.667 134.499C202.616 134.499 202.568 134.465 202.554 134.415C201.795 131.951 197.447 117.857 196.722 115.508C196.66 115.311 196.48 115.177 196.272 115.177C195.44 115.177 193.343 115.177 192.508 115.177C192.3 115.177 192.117 115.311 192.058 115.511C191.344 117.865 187.071 131.948 186.324 134.415C186.31 134.465 186.262 134.499 186.211 134.499C186.161 134.499 186.113 134.465 186.099 134.415C185.298 131.821 180.516 116.322 179.751 113.852C179.69 113.656 179.507 113.521 179.302 113.521C178.388 113.521 175.903 113.521 174.714 113.521C174.562 113.521 174.422 113.594 174.332 113.715C174.242 113.838 174.219 113.995 174.267 114.138C175.541 117.978 182.349 138.512 183.285 141.338Z" fill="#250E62"/>
<path d="M244.535 129.3C244.78 129.3 244.985 129.112 245.004 128.865C245.342 124.321 243.942 120.089 240.763 116.831C238.098 114.193 234.458 112.691 230.457 112.691C221.999 112.691 215.745 119.573 215.745 127.641C215.745 135.089 221.384 142.487 230.511 142.487C233.33 142.487 236.099 141.709 238.458 140.107C240.642 138.667 242.477 136.565 243.793 133.793C243.863 133.647 243.852 133.476 243.765 133.341C243.678 133.206 243.529 133.122 243.368 133.122C242.132 133.122 239.672 133.122 238.84 133.122C238.668 133.122 238.511 133.215 238.427 133.366C236.867 136.17 234.148 137.882 230.511 137.882C226.353 137.882 221.493 135.047 221.139 129.482C221.136 129.434 221.153 129.387 221.187 129.35C221.22 129.314 221.265 129.294 221.316 129.294C223.351 129.3 241.493 129.3 244.535 129.3ZM221.42 125.107C221.369 125.107 221.324 125.087 221.291 125.051C221.257 125.014 221.24 124.967 221.246 124.916C221.606 121.147 225.114 117.297 230.46 117.297C235.649 117.196 239.304 121.24 239.672 124.916C239.678 124.964 239.661 125.014 239.627 125.051C239.593 125.087 239.545 125.107 239.498 125.107C237.659 125.107 223.253 125.107 221.42 125.107Z" fill="#250E62"/>
<path d="M280.443 131.78C280.255 131.78 280.086 131.893 280.01 132.064C278.804 134.764 275.923 137.421 271.414 137.472C266.081 137.472 261.879 133.386 261.879 127.591C261.879 124.745 262.956 122.107 264.597 120.451C266.545 118.588 268.597 117.659 271.417 117.709C275.113 117.709 278.515 119.721 280.016 123.314C280.089 123.49 280.26 123.605 280.451 123.605C281.337 123.605 283.83 123.605 285 123.605C285.149 123.605 285.289 123.535 285.376 123.417C285.466 123.3 285.491 123.145 285.449 123.002C283.513 116.584 277.677 112.691 271.212 112.691C262.854 112.691 256.549 119.261 256.549 127.591C256.549 135.401 262.343 142.49 271.467 142.49C278.205 142.49 283.555 138.19 285.432 132.392C285.477 132.249 285.452 132.095 285.362 131.974C285.272 131.853 285.132 131.783 284.983 131.783C283.81 131.78 281.317 131.78 280.443 131.78Z" fill="#250E62"/>
<path d="M319.203 113.991C319.203 113.73 318.992 113.522 318.73 113.522C317.721 113.522 315.351 113.522 314.339 113.522C314.213 113.522 314.095 113.573 314.008 113.66C313.921 113.747 313.87 113.867 313.87 113.991C313.87 114.934 313.87 117.05 313.87 118.004C313.87 118.057 313.833 118.105 313.78 118.119C313.727 118.133 313.673 118.108 313.648 118.06C312.209 115.478 308.76 112.694 303.514 112.694C295.413 112.694 289.212 119.006 289.212 127.593C289.212 135.457 294.544 142.493 303.514 142.493C307.765 142.493 311.632 140.668 313.651 137.155C313.676 137.107 313.732 137.085 313.783 137.099C313.834 137.113 313.87 137.158 313.87 137.211C313.87 138.146 313.87 140.253 313.87 141.193C313.87 141.454 314.081 141.662 314.339 141.662C315.351 141.662 317.718 141.662 318.73 141.662C318.992 141.662 319.203 141.451 319.203 141.193C319.203 137.82 319.203 117.361 319.203 113.991ZM294.544 127.644C294.544 122.368 298.339 117.712 304.183 117.712C308.644 117.712 311.77 120.246 313.105 123.505C313.721 124.798 313.977 126.246 313.926 127.695C313.876 129.143 313.566 130.591 312.951 131.884C311.565 135.092 308.54 137.472 304.287 137.472C297.521 137.472 294.598 131.884 294.547 127.695V127.644H294.544Z" fill="#250E62"/>
<path d="M326.227 141.191C326.227 141.452 326.438 141.66 326.697 141.66C327.709 141.66 330.076 141.66 331.088 141.66C331.349 141.66 331.557 141.449 331.557 141.191C331.557 138.629 331.557 126.452 331.557 126.452C331.557 120.864 334.171 118.072 339.195 118.072C339.29 118.072 339.38 118.033 339.448 117.968C339.515 117.901 339.552 117.811 339.552 117.716C339.552 116.778 339.552 114.247 339.552 113.178C339.552 113.049 339.498 112.925 339.405 112.838C339.313 112.748 339.186 112.703 339.057 112.709C335.67 112.88 333.022 114.348 331.467 117.224C331.442 117.272 331.388 117.295 331.335 117.283C331.282 117.269 331.245 117.224 331.245 117.168C331.245 116.366 331.245 114.78 331.245 113.989C331.245 113.862 331.194 113.745 331.107 113.658C331.02 113.571 330.899 113.52 330.776 113.52C329.817 113.52 327.65 113.52 326.694 113.52C326.433 113.52 326.225 113.73 326.225 113.989C326.227 117.362 326.227 137.821 326.227 141.191Z" fill="#250E62"/>
<path d="M368.705 129.3C368.95 129.3 369.155 129.112 369.175 128.865C369.512 124.321 368.112 120.089 364.933 116.831C362.268 114.193 358.628 112.691 354.628 112.691C346.17 112.691 339.915 119.573 339.915 127.641C339.915 135.089 345.554 142.487 354.681 142.487C357.501 142.487 360.27 141.709 362.628 140.107C364.815 138.667 366.648 136.565 367.963 133.793C368.031 133.647 368.022 133.476 367.935 133.341C367.848 133.206 367.699 133.122 367.539 133.122C366.302 133.122 363.842 133.122 363.01 133.122C362.839 133.122 362.681 133.215 362.597 133.366C361.037 136.17 358.319 137.882 354.681 137.882C350.524 137.882 345.664 135.047 345.309 129.482C345.307 129.434 345.323 129.387 345.357 129.35C345.391 129.314 345.436 129.294 345.486 129.294C347.522 129.3 365.664 129.3 368.705 129.3ZM345.59 125.107C345.543 125.107 345.495 125.087 345.461 125.051C345.427 125.014 345.411 124.967 345.416 124.916C345.776 121.147 349.284 117.297 354.631 117.297C359.82 117.196 363.474 121.24 363.842 124.916C363.848 124.964 363.831 125.014 363.797 125.051C363.764 125.087 363.716 125.107 363.668 125.107C361.83 125.107 347.423 125.107 345.59 125.107Z" fill="#250E62"/>
<path fill-rule="evenodd" clip-rule="evenodd" d="M31.2432 36.2667L0.802734 0.65918L31.2432 71.8742H113.027L143.47 143.092L113.027 107.485H0.802734V0.65918H113.027V36.2667H31.2432Z" fill="#FF8674"/>
<path fill-rule="evenodd" clip-rule="evenodd" d="M113.027 107.485L143.47 143.092L113.027 71.8742H31.2432L0.802734 0.65918L31.2432 36.2667H143.47V143.092H31.2432V107.485H113.027Z" fill="#250E62"/>
</svg>
